<svg version="1.1" xmlns="http://www.w3.org/2000/svg" viewBox="0 0 908.6400000000001 328.25" width="908.6400000000001" height="328.25"><!-- svg-source:excalidraw --><metadata></metadata><defs><style class="style-fonts">
      </style></defs><g stroke-opacity="0" fill-opacity="0" stroke-linecap="round" transform="translate(270 10) rotate(0 130 27)"><path d="M13.5 0 C65.03 5.63, 119.81 1.76, 246.5 0 C252.79 -2.33, 256.41 4.25, 260 13.5 C260.47 21.39, 259.53 26.07, 260 40.5 C261.11 52, 252.95 52.85, 246.5 54 C181.2 56.33, 119.87 55.4, 13.5 54 C3.14 54.75, -2.58 49.23, 0 40.5 C-1.19 33.04, 2.56 29.53, 0 13.5 C3.06 3.76, 5.64 -0.77, 13.5 0" stroke="none" stroke-width="0" fill="#eef0fb"></path><path d="M13.5 0 C61.32 1.66, 109.11 2.83, 246.5 0 M13.5 0 C80.12 -0.03, 146.15 0.32, 246.5 0 M246.5 0 C255.12 -0.07, 259.99 3.69, 260 13.5 M246.5 0 C256.1 -1.98, 258.68 5.69, 260 13.5 M260 13.5 C261.72 17.96, 260.53 24.82, 260 40.5 M260 13.5 C259.84 21.48, 260.69 27.18, 260 40.5 M260 40.5 C259.94 51.16, 255.02 53.64, 246.5 54 M260 40.5 C261.38 50.05, 257.44 54.8, 246.5 54 M246.5 54 C167.44 54.46, 91.52 56.62, 13.5 54 M246.5 54 C157.42 54.43, 68.17 54.92, 13.5 54 M13.5 54 C6.06 55.32, -1.54 50.79, 0 40.5 M13.5 54 C3.34 51.83, -0.82 51.44, 0 40.5 M0 40.5 C-0.16 30.03, -1.7 21.07, 0 13.5 M0 40.5 C-1.05 29.98, -0.53 19.81, 0 13.5 M0 13.5 C-2 4.48, 5.78 1.76, 13.5 0 M0 13.5 C-1.4 3.28, 4.9 1.69, 13.5 0" stroke="#3b3dbf" stroke-width="2" fill="none"></path></g><g stroke-opacity="0" fill-opacity="0" transform="translate(278 26.375) rotate(0 122 10.625)"><text x="122" y="15.21533203125" font-family="Helvetica, Segoe UI Emoji" font-size="17px" fill="#1e1e2f" text-anchor="middle" style="white-space: pre;" direction="ltr" dominant-baseline="alphabetic">a pod that is working fine</text></g><g stroke-linecap="round" transform="translate(10 118) rotate(0 175 26)"><path d="M13 0 C141.41 1.99, 268.9 2.33, 337 0 C348.19 0.86, 351.17 2.83, 350 13 C349.5 23.01, 352.68 28.26, 350 39 C352.46 49.25, 347.75 51.63, 337 52 C249.93 53.07, 169.62 48.99, 13 52 C5.87 54.08, 0.3 49.51, 0 39 C1.46 35.92, -2.76 24.19, 0 13 C-0.12 3.98, 6.73 0.28, 13 0" stroke="none" stroke-width="0" fill="#fdecec"></path><path d="M13 0 C79.86 -2.53, 148.79 -0.47, 337 0 M13 0 C110.37 2.32, 207.67 2.68, 337 0 M337 0 C344.96 -1.25, 350.6 5.09, 350 13 M337 0 C347.23 -0.07, 348.1 3.4, 350 13 M350 13 C350.51 22.58, 349.05 30.99, 350 39 M350 13 C349.95 22.64, 349.79 31.15, 350 39 M350 39 C350.61 48.57, 346.74 51.48, 337 52 M350 39 C350.08 45.38, 346.21 52.49, 337 52 M337 52 C216.28 53.62, 96.68 53.02, 13 52 M337 52 C264.05 52.92, 190.04 53.29, 13 52 M13 52 C5.06 53.27, 1.54 47.73, 0 39 M13 52 C3.83 53.94, -0.16 47.7, 0 39 M0 39 C-0.42 28.22, 1.52 19.92, 0 13 M0 39 C-0.06 30.28, 0.56 23.36, 0 13 M0 13 C-1.79 4.22, 6.17 1.14, 13 0 M0 13 C-0.37 4.92, 5.52 0.92, 13 0" stroke="#ef4444" stroke-width="2" fill="none"></path></g><g transform="translate(18 134) rotate(0 167 10)"><text x="167" y="14.3203125" font-family="Helvetica, Segoe UI Emoji" font-size="16px" fill="#1e1e2f" text-anchor="middle" style="white-space: pre;" direction="ltr" dominant-baseline="alphabetic">liveness says no</text></g><g stroke-opacity="0" fill-opacity="0" stroke-linecap="round" transform="translate(440 118) rotate(0 175 26)"><path d="M13 0 C126.69 -1.71, 240.9 -2.85, 337 0 C346.23 -3.15, 348.74 1.57, 350 13 C347.58 20.17, 347.69 28.2, 350 39 C346.61 48.33, 345.18 52.41, 337 52 C257.22 54.59, 172.7 57.16, 13 52 C1.58 55.42, 3.18 44.43, 0 39 C-3.08 32.89, -0.88 27.14, 0 13 C-3.31 4.37, 0.78 1.33, 13 0" stroke="none" stroke-width="0" fill="#e7f8f2"></path><path d="M13 0 C79.9 0.27, 148.22 -2.12, 337 0 M13 0 C115.14 0.3, 219.04 -0.65, 337 0 M337 0 C344.63 1.57, 351.2 2.65, 350 13 M337 0 C343.6 1.85, 352.13 5.89, 350 13 M350 13 C349.81 18.74, 352.1 23.72, 350 39 M350 13 C349.52 19.37, 350.35 27.75, 350 39 M350 39 C351.28 47.81, 344.3 51.31, 337 52 M350 39 C348.78 47.14, 344.81 52.17, 337 52 M337 52 C269.52 51.58, 198.93 51.37, 13 52 M337 52 C248.99 51.76, 161.75 52.09, 13 52 M13 52 C4.23 53.23, 0.62 46.5, 0 39 M13 52 C4.49 53.44, 0.51 45.79, 0 39 M0 39 C-0.16 32.75, 1.26 25.93, 0 13 M0 39 C-0.56 31.7, 0.18 25.67, 0 13 M0 13 C-1.59 4.12, 2.73 0.52, 13 0 M0 13 C0.66 2.13, 6.3 0.15, 13 0" stroke="#10b981" stroke-width="2" fill="none"></path></g><g stroke-opacity="0" fill-opacity="0" transform="translate(448 134) rotate(0 167 10)"><text x="167" y="14.3203125" font-family="Helvetica, Segoe UI Emoji" font-size="16px" fill="#1e1e2f" text-anchor="middle" style="white-space: pre;" direction="ltr" dominant-baseline="alphabetic">readiness says no</text></g><g stroke-linecap="round" transform="translate(10 200) rotate(0 175 46)"><path d="M23 0 C85.76 0.33, 149.31 -1.03, 327 0 M23 0 C124.66 -1.66, 225.72 -2.58, 327 0 M327 0 C340.98 0.38, 351.81 7.55, 350 23 M327 0 C341.23 -0.84, 351.55 7.1, 350 23 M350 23 C348.5 36.13, 350.53 48.92, 350 69 M350 23 C349.65 40.9, 349.46 57.98, 350 69 M350 69 C351.95 83.71, 342.52 91.14, 327 92 M350 69 C352.09 85.56, 340.08 91.86, 327 92 M327 92 C250.15 92.33, 174.33 92.53, 23 92 M327 92 C231.55 92.02, 137.38 90.88, 23 92 M23 92 C6.73 93.18, -0.3 85.95, 0 69 M23 92 C8.48 92.95, 1.18 85.16, 0 69 M0 69 C-0.34 56.86, 0.55 45.13, 0 23 M0 69 C0.43 50.08, -0.72 33.88, 0 23 M0 23 C-1.38 7.35, 6.62 -0.1, 23 0 M0 23 C1.69 7.27, 5.82 -0.62, 23 0" stroke="#ef4444" stroke-width="2" fill="none"></path></g><g transform="translate(18 213.5) rotate(0 167 32.5)"><text x="167" y="11.63525390625" font-family="Helvetica, Segoe UI Emoji" font-size="13px" fill="#1e1e2f" text-anchor="middle" style="white-space: pre;" direction="ltr" dominant-baseline="alphabetic">kubelet KILLS the container</text><text x="167" y="27.88525390625" font-family="Helvetica, Segoe UI Emoji" font-size="13px" fill="#1e1e2f" text-anchor="middle" style="white-space: pre;" direction="ltr" dominant-baseline="alphabetic"></text><text x="167" y="44.13525390625" font-family="Helvetica, Segoe UI Emoji" font-size="13px" fill="#1e1e2f" text-anchor="middle" style="white-space: pre;" direction="ltr" dominant-baseline="alphabetic">work in flight dies · the pool is rebuilt</text><text x="167" y="60.38525390625" font-family="Helvetica, Segoe UI Emoji" font-size="13px" fill="#1e1e2f" text-anchor="middle" style="white-space: pre;" direction="ltr" dominant-baseline="alphabetic">the cache is cold again</text></g><g stroke-opacity="0" fill-opacity="0" stroke-linecap="round" transform="translate(440 200) rotate(0 175 46)"><path d="M23 0 C85.8 0.32, 148.69 0.11, 327 0 M23 0 C129.11 0.78, 235.05 -0.06, 327 0 M327 0 C340.65 -0.8, 348.42 9.12, 350 23 M327 0 C342.19 1.08, 350.98 9.58, 350 23 M350 23 C352.02 39.29, 349.8 59.65, 350 69 M350 23 C349.03 35.76, 349.83 48.84, 350 69 M350 69 C348.62 82.95, 344.07 90.98, 327 92 M350 69 C350.79 82.72, 343.28 91.54, 327 92 M327 92 C239.42 90.23, 151.34 90.84, 23 92 M327 92 C218.74 90.84, 110.79 91.11, 23 92 M23 92 C5.9 93.13, -1.22 84.72, 0 69 M23 92 C9.14 92.46, 1.85 83.25, 0 69 M0 69 C-0.67 55.57, -0.29 43.52, 0 23 M0 69 C-0.69 54.71, 0.27 38.6, 0 23 M0 23 C-1.18 7.25, 7.18 -0.72, 23 0 M0 23 C-1.88 9.08, 6.6 -1.39, 23 0" stroke="#10b981" stroke-width="2" fill="none"></path></g><g stroke-opacity="0" fill-opacity="0" transform="translate(448 213.5) rotate(0 167 32.5)"><text x="167" y="11.63525390625" font-family="Helvetica, Segoe UI Emoji" font-size="13px" fill="#1e1e2f" text-anchor="middle" style="white-space: pre;" direction="ltr" dominant-baseline="alphabetic">the pod leaves the EndpointSlice</text><text x="167" y="27.88525390625" font-family="Helvetica, Segoe UI Emoji" font-size="13px" fill="#1e1e2f" text-anchor="middle" style="white-space: pre;" direction="ltr" dominant-baseline="alphabetic"></text><text x="167" y="44.13525390625" font-family="Helvetica, Segoe UI Emoji" font-size="13px" fill="#1e1e2f" text-anchor="middle" style="white-space: pre;" direction="ltr" dominant-baseline="alphabetic">it keeps running · no traffic reaches it</text><text x="167" y="60.38525390625" font-family="Helvetica, Segoe UI Emoji" font-size="13px" fill="#1e1e2f" text-anchor="middle" style="white-space: pre;" direction="ltr" dominant-baseline="alphabetic">it comes back by itself</text></g><g stroke-linecap="round"><g transform="translate(333.69158878504675 70) rotate(0 -42.196261682243005 21)"><path d="M-0.64 -0.38 C-14.64 6.66, -71.16 35.94, -85.11 43.13 M1.23 -1.63 C-12.29 5.03, -68.39 34.53, -82.78 41.61" stroke="#ef4444" stroke-width="2" fill="none"></path></g><g transform="translate(333.69158878504675 70) rotate(0 -42.196261682243005 21)"><path d="M-65.74 23.31 C-69.79 25.83, -70.81 30.93, -82.78 41.61 M-65.74 23.31 C-72.33 30.48, -78.56 36.1, -82.78 41.61" stroke="#ef4444" stroke-width="2" fill="none"></path></g><g transform="translate(333.69158878504675 70) rotate(0 -42.196261682243005 21)"><path d="M-57.97 38.54 C-63.75 37.85, -66.39 39.78, -82.78 41.61 M-57.97 38.54 C-67.43 40.2, -76.5 40.28, -82.78 41.61" stroke="#ef4444" stroke-width="2" fill="none"></path></g></g><mask></mask><g stroke-linecap="round"><g stroke-opacity="0" fill-opacity="0" transform="translate(466.30841121495325 70) rotate(0 42.196261682243005 21)"><path d="M0.37 -0.38 C14.65 6.94, 70.53 35.64, 84.57 42.85 M-0.9 -1.63 C13.33 5.46, 69.57 34.07, 83.71 41.17" stroke="#10b981" stroke-width="2" fill="none"></path></g><g stroke-opacity="0" fill-opacity="0" transform="translate(466.30841121495325 70) rotate(0 42.196261682243005 21)"><path d="M58.89 38.2 C63.4 39.04, 70.62 39.74, 83.71 41.17 M58.89 38.2 C68.47 38.9, 77.75 40.01, 83.71 41.17" stroke="#10b981" stroke-width="2" fill="none"></path></g><g stroke-opacity="0" fill-opacity="0" transform="translate(466.30841121495325 70) rotate(0 42.196261682243005 21)"><path d="M66.61 22.94 C69.38 26.98, 74.99 30.86, 83.71 41.17 M66.61 22.94 C73.34 29.25, 79.75 36.06, 83.71 41.17" stroke="#10b981" stroke-width="2" fill="none"></path></g></g><mask></mask><g stroke-linecap="round"><g transform="translate(185 176) rotate(0 0 9)"><path d="M-0.47 -0.17 C-0.3 2.92, 0.38 15.16, 0.49 18.26 M0.29 -0.74 C0.47 2.21, 0.37 14.37, 0.31 17.42" stroke="#ef4444" stroke-width="2" fill="none"></path></g><g transform="translate(185 176) rotate(0 0 9)"><path d="M-2.67 8.93 C-2.21 11.12, -1.23 12.63, 0.31 17.42 M-2.67 8.93 C-1.74 12.25, -0.58 15.27, 0.31 17.42" stroke="#ef4444" stroke-width="2" fill="none"></path></g><g transform="translate(185 176) rotate(0 0 9)"><path d="M3.49 9 C2.66 11.15, 2.36 12.65, 0.31 17.42 M3.49 9 C2.08 12.28, 0.89 15.28, 0.31 17.42" stroke="#ef4444" stroke-width="2" fill="none"></path></g></g><mask></mask><g stroke-linecap="round"><g stroke-opacity="0" fill-opacity="0" transform="translate(615 176) rotate(0 0 9)"><path d="M-0.01 -0.17 C0.04 2.86, -0.24 15.02, -0.2 18.13 M-0.68 -0.74 C-0.67 2.13, -0.85 14.16, -0.73 17.23" stroke="#10b981" stroke-width="2" fill="none"></path></g><g stroke-opacity="0" fill-opacity="0" transform="translate(615 176) rotate(0 0 9)"><path d="M-3.88 8.8 C-3.37 10.39, -2.47 12.52, -0.73 17.23 M-3.88 8.8 C-2.7 11.92, -1.44 15.23, -0.73 17.23" stroke="#10b981" stroke-width="2" fill="none"></path></g><g stroke-opacity="0" fill-opacity="0" transform="translate(615 176) rotate(0 0 9)"><path d="M2.27 8.74 C1.5 10.35, 1.12 12.49, -0.73 17.23 M2.27 8.74 C1.06 11.89, -0.07 15.21, -0.73 17.23" stroke="#10b981" stroke-width="2" fill="none"></path></g></g><mask></mask><g transform="translate(10 302) rotate(0 232.96000000000004 8.125)"><text x="0" y="11.63525390625" font-family="Helvetica, Segoe UI Emoji" font-size="13px" fill="#ef4444" text-anchor="start" style="white-space: pre;" direction="ltr" dominant-baseline="alphabetic">irreversible — one job: notice a process that will never recover</text></g><g stroke-opacity="0" fill-opacity="0" transform="translate(440 302) rotate(0 229.32000000000005 8.125)"><text x="0" y="11.63525390625" font-family="Helvetica, Segoe UI Emoji" font-size="13px" fill="#10b981" text-anchor="start" style="white-space: pre;" direction="ltr" dominant-baseline="alphabetic">reversible — slow is a readiness question, never a liveness one</text></g></svg>